<svg width="16" height="16" viewBox="0 0 16 16" fill="none" xmlns="http://www.w3.org/2000/svg">
<path d="M6.80469 1.60547C6.45312 1.95703 6.48828 2.48438 6.80469 2.83594L11.0586 6.84375H0.96875C0.476562 6.84375 0.125 7.23047 0.125 7.6875V8.8125C0.125 9.30469 0.476562 9.65625 0.96875 9.65625H11.0586L6.80469 13.6992C6.48828 14.0508 6.48828 14.5781 6.80469 14.9297L7.57812 15.7031C7.92969 16.0195 8.45703 16.0195 8.77344 15.7031L15.6289 8.84766C15.9453 8.53125 15.9453 8.00391 15.6289 7.65234L8.77344 0.832031C8.45703 0.515625 7.92969 0.515625 7.57812 0.832031L6.80469 1.60547Z" fill="#fff"/>
</svg>
